<?xml version="1.0" encoding="UTF-8"?>
<!DOCTYPE svg PUBLIC "-//W3C//DTD SVG 1.1//EN" "http://www.w3.org/Graphics/SVG/1.1/DTD/svg11.dtd">
<!-- Creator: CorelDRAW 2020 (64 Bit) -->
<svg xmlns="http://www.w3.org/2000/svg" xml:space="preserve" width="8.7313mm" height="8.7312mm" version="1.1" style="shape-rendering:geometricPrecision; text-rendering:geometricPrecision; image-rendering:optimizeQuality; fill-rule:evenodd; clip-rule:evenodd"
viewBox="0 0 212.75 212.75"
 xmlns:xlink="http://www.w3.org/1999/xlink"
 xmlns:xodm="http://www.corel.com/coreldraw/odm/2003">
 <defs>
  <style type="text/css">
   <![CDATA[
    .fil0 {fill:#FEFEFE}
   ]]>
  </style>
 </defs>
 <g id="Camada_x0020_1">
  <metadata id="CorelCorpID_0Corel-Layer"/>
  <path class="fil0" d="M189.38 79.7c1.74,-1.99 3.55,-4.07 4.78,-5.48 -18.66,-18.83 -36.67,-37.02 -55.14,-55.7 -2,2.14 -3.94,4.19 -5.68,6.11 5.81,8.8 49.78,52.03 56.04,55.06zm-50.69 114.63c18.86,-18.77 37,-36.81 55.46,-55.18 -0.58,-0.73 -1.35,-1.97 -2.32,-2.95 -1.03,-0.99 -2.26,-1.73 -4.39,-3.29 -19.5,16.97 -35.96,36.78 -54.95,54.05 1.29,2.08 1.81,3.17 2.58,4 1.16,1.28 2.52,2.38 3.62,3.37zm-17.5 -17.68c18.79,-18.62 36.93,-36.61 56.05,-55.53 -1.23,-1.42 -3.04,-3.5 -4.65,-5.35 -19.37,19.41 -37.32,37.36 -56.37,56.39 1.93,1.77 4,3.65 4.97,4.49zm-68.9 -70c2.9,5.32 46.75,49.47 54.24,54.39 8.46,-5.77 51.46,-49.4 54.24,-55.08 -9.49,-11.73 -49.27,-50.55 -54.37,-53.29 -18.01,18.02 -36.03,35.94 -54.11,53.97zm39.19 70.3c1.29,-1.15 3.16,-2.87 4.91,-4.44 -18.92,-19 -37,-37.19 -55.33,-55.68 -0.84,0.67 -2.07,1.46 -3.03,2.51 -0.97,1.03 -1.62,2.31 -1.62,2.28 18.6,18.66 36.61,36.79 55.08,55.34zm-17.11 17.41c1.68,-1.81 3.68,-4.06 6.33,-6.96 -18.66,-18.6 -36.67,-36.56 -55.08,-54.97 -2.97,2.61 -5.1,4.48 -6.91,6.13 18.92,19 37,37.11 55.66,55.81zm-1.55 -175.93c-18.47,18.47 -36.74,36.69 -55.34,55.3 2.91,2.66 4.84,4.39 7.04,6.43 10.59,-8.15 51.39,-49.64 54.82,-55.64 -0.84,-1.04 -1.62,-2.3 -2.65,-3.29 -0.97,-0.97 -2.26,-1.66 -3.87,-2.8zm18.92 18.33c-18.79,18.68 -36.87,36.72 -55.85,55.63 1.1,1.26 2.91,3.32 4.13,4.69 19.5,-19.38 37.71,-37.49 56.37,-56.11 -1.68,-1.52 -3.74,-3.38 -4.65,-4.21zm27.38 1.59c-0.71,0.83 -1.29,1.9 -3.49,5.28 18.34,18.24 36.48,36.27 55.27,54.92 3.1,-3.72 4.91,-5.84 6.59,-7.82 -9.81,-12.46 -52.75,-54.44 -55.85,-54.31 -0.65,0.5 -1.68,1.1 -2.52,1.93zm78.39 51.69c5.04,5.31 9.81,10.39 15.24,16.13 -5.23,5.48 -10.27,10.72 -15.88,16.61 5.68,5.87 10.91,11.32 15.56,16.13 -24.66,24.61 -48.75,48.68 -73.54,73.46 -4.45,-4.14 -9.75,-9.1 -15.49,-14.53 -5.55,4.55 -10.91,8.99 -17.31,14.26 -5.04,-4.77 -10.07,-9.49 -15.75,-14.86 -5.68,5.33 -11.24,10.49 -16.59,15.52 -7.17,-4.07 -60.89,-57.5 -73.74,-73.29 5.36,-5.58 10.46,-10.83 16.08,-16.68 -5.55,-5.71 -10.59,-10.9 -16.08,-16.55 5.36,-5.57 10.2,-10.61 15.56,-16.2 -5.42,-5.62 -10.52,-10.83 -14.66,-15.13 24.67,-24.62 48.75,-48.72 73.61,-73.53 4.13,3.86 9.43,8.85 15.37,14.46 5.42,-5.21 10.65,-10.22 16.46,-15.82 5.81,5.44 11.04,10.41 16.85,15.84 5.62,-5.39 10.85,-10.43 15.17,-14.59 24.67,24.62 48.81,48.71 73.61,73.43 -4,4.25 -8.98,9.54 -14.46,15.36zm-112.29 15.73c7.88,7.77 14.79,14.52 21.31,20.94 6.65,-6.42 13.75,-13.28 20.27,-19.63 -7.36,-7.14 -14.66,-14.17 -22.15,-21.44 -6.13,6.33 -12.85,13.29 -19.44,20.13zm20.98 -38.83c13.3,13.38 26.41,26.51 40.23,40.37 -12.85,12.84 -26.35,26.26 -40.36,40.26 -13.88,-14 -28.02,-26.35 -39.39,-40.47 13.56,-13.77 26.54,-26.96 39.52,-40.16z"/>
 </g>
</svg>
