<?xml version="1.0" encoding="UTF-8"?>
<!DOCTYPE svg PUBLIC "-//W3C//DTD SVG 1.1//EN" "http://www.w3.org/Graphics/SVG/1.1/DTD/svg11.dtd">
<!-- Creator: CorelDRAW 2020 (64 Bit) -->
<svg xmlns="http://www.w3.org/2000/svg" xml:space="preserve" width="8.7313mm" height="8.7312mm" version="1.1" style="shape-rendering:geometricPrecision; text-rendering:geometricPrecision; image-rendering:optimizeQuality; fill-rule:evenodd; clip-rule:evenodd"
viewBox="0 0 181.22 181.21"
 xmlns:xlink="http://www.w3.org/1999/xlink"
 xmlns:xodm="http://www.corel.com/coreldraw/odm/2003">
 <defs>
  <style type="text/css">
   <![CDATA[
    .fil0 {fill:#1A1919}
   ]]>
  </style>
 </defs>
 <g id="Camada_x0020_1">
  <metadata id="CorelCorpID_0Corel-Layer"/>
  <path class="fil0" d="M161.31 67.89c1.49,-1.69 3.03,-3.47 4.07,-4.66 -15.89,-16.04 -31.24,-31.53 -46.97,-47.44 -1.7,1.82 -3.35,3.57 -4.84,5.2 4.95,7.5 42.4,44.32 47.74,46.9zm-43.17 97.64c16.06,-15.99 31.51,-31.35 47.24,-47 -0.49,-0.62 -1.15,-1.67 -1.98,-2.51 -0.88,-0.85 -1.92,-1.48 -3.74,-2.81 -16.61,14.46 -30.63,31.33 -46.8,46.04 1.1,1.77 1.54,2.7 2.2,3.4 0.99,1.09 2.15,2.03 3.08,2.87zm-14.9 -15.06c16,-15.86 31.46,-31.18 47.74,-47.3 -1.05,-1.21 -2.59,-2.98 -3.96,-4.55 -16.5,16.53 -31.79,31.83 -48.01,48.03 1.65,1.51 3.41,3.11 4.23,3.83zm-58.68 -59.62c2.47,4.53 39.82,42.13 46.2,46.33 7.2,-4.92 43.83,-42.07 46.2,-46.91 -8.08,-9.99 -41.96,-43.06 -46.31,-45.39 -15.34,15.35 -30.69,30.61 -46.09,45.97zm33.38 59.88c1.1,-0.98 2.69,-2.44 4.18,-3.79 -16.11,-16.18 -31.51,-31.68 -47.13,-47.43 -0.71,0.57 -1.76,1.25 -2.58,2.14 -0.83,0.87 -1.38,1.97 -1.38,1.94 15.84,15.9 31.18,31.34 46.91,47.14zm-14.57 14.83c1.43,-1.54 3.13,-3.46 5.39,-5.93 -15.89,-15.84 -31.24,-31.14 -46.91,-46.82 -2.53,2.22 -4.34,3.82 -5.88,5.22 16.11,16.19 31.51,31.61 47.41,47.53zm-1.32 -149.85c-15.73,15.73 -31.29,31.25 -47.13,47.1 2.48,2.27 4.13,3.74 6,5.48 9.02,-6.94 43.78,-42.28 46.69,-47.39 -0.72,-0.88 -1.38,-1.96 -2.26,-2.8 -0.82,-0.82 -1.92,-1.41 -3.3,-2.38zm16.11 15.61c-16,15.91 -31.4,31.28 -47.57,47.39 0.94,1.08 2.48,2.83 3.52,3.99 16.61,-16.51 32.12,-31.94 48.01,-47.79 -1.43,-1.29 -3.19,-2.88 -3.96,-3.59zm23.32 1.35c-0.61,0.71 -1.1,1.62 -2.97,4.49 15.62,15.54 31.07,30.89 47.08,46.78 2.64,-3.17 4.18,-4.98 5.61,-6.66 -8.36,-10.62 -44.93,-46.37 -47.57,-46.26 -0.55,0.42 -1.43,0.93 -2.14,1.65zm66.77 44.03c4.29,4.52 8.36,8.85 12.98,13.74 -4.46,4.66 -8.75,9.13 -13.53,14.14 4.84,5 9.29,9.64 13.25,13.74 -21.01,20.96 -41.52,41.46 -62.64,62.57 -3.79,-3.52 -8.3,-7.75 -13.2,-12.38 -4.73,3.87 -9.29,7.66 -14.74,12.15 -4.29,-4.06 -8.58,-8.08 -13.42,-12.66 -4.84,4.54 -9.57,8.93 -14.13,13.22 -6.11,-3.47 -51.86,-48.98 -62.81,-62.43 4.57,-4.75 8.91,-9.23 13.69,-14.21 -4.73,-4.87 -9.02,-9.28 -13.69,-14.1 4.57,-4.75 8.69,-9.04 13.25,-13.8 -4.62,-4.78 -8.96,-9.23 -12.48,-12.89 21.01,-20.97 41.52,-41.5 62.7,-62.63 3.52,3.29 8.03,7.54 13.09,12.32 4.62,-4.44 9.07,-8.71 14.02,-13.48 4.95,4.63 9.4,8.86 14.35,13.49 4.79,-4.59 9.24,-8.89 12.92,-12.43 21.01,20.97 41.58,41.49 62.7,62.54 -3.41,3.62 -7.65,8.12 -12.32,13.08zm-95.64 13.4c6.71,6.62 12.59,12.36 18.15,17.83 5.66,-5.47 11.71,-11.31 17.27,-16.72 -6.27,-6.09 -12.48,-12.07 -18.86,-18.26 -5.22,5.39 -10.94,11.32 -16.55,17.15zm17.87 -33.07c11.33,11.4 22.49,22.58 34.26,34.39 -10.94,10.94 -22.44,22.37 -34.37,34.29 -11.82,-11.92 -23.87,-22.44 -33.55,-34.47 11.55,-11.73 22.6,-22.96 33.66,-34.21z"/>
 </g>
</svg>
